#!OML:ASF H:\LiuWeirdWalks\Patient Classification 1\Patient 1\Session 1\male.ASF
:FULLY-SPECIFIED
:DEGREES
1201
root 2.09165 17.8234 30.7409 -3.83846 2.55135 -18.707
lowerback 11.3267 -1.76277 -10.7493
upperback 0.159387 -4.01182 -4.70452
thorax -5.82363 -1.71592 1.67254
lowerneck -16.4832 2.06548 4.95046
upperneck 19.9252 -0.516906 9.11015
head 9.07176 1.13662 2.24145
rclavicle -3.97569e-016 2.54444e-014
rhumerus -29.0311 -15.8247 -7.35656
rradius 37.3525
rwrist -10.9365
rhand -18.1398 0.326156
rfingers 7.12502
rthumb 8.13542 -29.4972
lclavicle -3.97569e-016 2.54444e-014
lhumerus -39.9094 32.9649 24.3668
lradius 43.2458
lwrist 7.48077
lhand -19.2078 2.34429
lfingers 7.12502
lthumb 7.10454 32.205
rfemur -4.34135 -13.3481 28.3758
rtibia 49.9503
rfoot 9.02217 -12.8952
rtoes -6.87946
lfemur -14.3151 -4.81555 5.87476
ltibia 38.6888
lfoot -9.50309 16.3611
ltoes -12.5578
1202
root 2.10798 17.8333 30.8063 -3.8279 2.4826 -18.8192
lowerback 11.3329 -1.78769 -10.7775
upperback 0.0855808 -4.05747 -4.70782
thorax -5.90052 -1.73156 1.6925
lowerneck -16.3717 2.10309 5.03054
upperneck 19.9536 -0.49284 9.17512
head 9.06229 1.1597 2.25268
rclavicle -4.31363e-014 9.54166e-015
rhumerus -28.8624 -15.6018 -7.22737
rradius 37.2759
rwrist -11.0362
rhand -18.2231 0.437562
rfingers 7.12502
rthumb 8.05499 -29.3889
lclavicle -4.31363e-014 9.54166e-015
lhumerus -40.0744 32.9207 24.3397
lradius 43.2802
lwrist 7.53599
lhand -19.2657 2.23731
lfingers 7.12502
lthumb 7.04872 32.0999
rfemur -4.28942 -13.0661 28.431
rtibia 49.979
rfoot 9.70185 -12.7793
rtoes -6.65896
lfemur -13.9589 -4.91001 5.9314
ltibia 38.5119
lfoot -9.58677 16.4961
ltoes -12.5251
1203
root 2.12391 17.842 30.8731 -3.84253 2.42849 -18.9196
lowerback 11.2834 -1.79539 -10.754
upperback 0.119474 -4.05468 -4.72879
thorax -5.83936 -1.73516 1.65431
lowerneck -16.5127 2.10549 5.02585
upperneck 19.9659 -0.529574 9.29279
head 9.09535 1.15905 2.29253
rclavicle 6.36111e-015 -2.8625e-014
rhumerus -28.8297 -15.6254 -7.04767
rradius 37.3691
rwrist -11.0408
rhand -18.2261 0.460886
rfingers 7.12502
rthumb 8.05215 -29.3657
lclavicle 6.36111e-015 -2.8625e-014
lhumerus -40.0527 33.0399 24.4198
lradius 43.2885
lwrist 7.50648
lhand -19.3085 2.13917
lfingers 7.12502
lthumb 7.0074 32.0032
rfemur -4.17704 -12.8458 28.4538
rtibia 49.9961
rfoot 10.3438 -12.6477
rtoes -6.51112
lfemur -13.5748 -5.00128 5.96994
ltibia 38.3436
lfoot -9.70035 16.6144
ltoes -12.5135
1204
root 2.13929 17.8492 30.9389 -3.86001 2.37287 -19.0031
lowerback 11.2005 -1.78741 -10.7065
upperback 0.219561 -4.01656 -4.75888
thorax -5.69389 -1.72826 1.58586
lowerneck -16.8439 2.08333 4.95311
upperneck 20.0059 -0.611748 9.44867
head 9.1745 1.14224 2.35531
rclavicle 2.76311e-014 1.90833e-014
rhumerus -28.8877 -15.8105 -6.83986
rradius 37.5911
rwrist -10.9938
rhand -18.184 0.417333
rfingers 7.12502
rthumb 8.09276 -29.4077
lclavicle 2.76311e-014 1.90833e-014
lhumerus -39.9085 33.2655 24.5729
lradius 43.2822
lwrist 7.44435
lhand -19.3299 2.06153
lfingers 7.12502
lthumb 6.9867 31.9262
rfemur -4.06009 -12.6567 28.4599
rtibia 50.0367
rfoot 10.9451 -12.5241
rtoes -6.34784
lfemur -13.1802 -5.08145 5.99102
ltibia 38.1646
lfoot -9.81294 16.7278
ltoes -12.54
1205
root 2.15278 17.8542 31.0018 -3.87434 2.30667 -19.1418
lowerback 11.109 -1.76963 -10.5916
upperback 0.362123 -3.95031 -4.77006
thorax -5.50352 -1.71242 1.49576
lowerneck -17.2909 2.04301 4.83659
upperneck 20.0188 -0.718019 9.61638
head 9.26638 1.11411 2.42778
rclavicle 2.93207e-014 8.26944e-014
rhumerus -28.9987 -16.1197 -6.62002
rradius 37.9103
rwrist -10.9365
rhand -18.1342 0.268236
rfingers 7.12502
rthumb 8.14078 -29.555
lclavicle 2.93207e-014 8.26944e-014
lhumerus -39.668 33.5525 24.7875
lradius 43.2495
lwrist 7.34007
lhand -19.3489 2.08367
lfingers 7.12502
lthumb 6.96832 31.949
rfemur -3.96646 -12.4731 28.5502
rtibia 50.1061
rfoot 11.5114 -12.4563
rtoes -6.26306
lfemur -12.7957 -5.13088 6.08817
ltibia 37.9718
lfoot -9.91177 16.8177
ltoes -12.5758
1206
root 2.1671 17.8621 31.0638 -3.81347 2.22434 -18.9911
lowerback 11.0184 -1.76534 -10.8264
upperback 0.373609 -3.96208 -4.83067
thorax -5.42872 -1.71645 1.55681
lowerneck -17.3929 2.04759 4.79506
upperneck 19.9879 -0.732982 9.72999
head 9.27633 1.11775 2.47337
rclavicle -7.65321e-015 -2.54444e-014
rhumerus -28.9215 -16.1415 -6.50923
rradius 38.0619
rwrist -10.9475
rhand -18.1294 0.20661
rfingers 7.12502
rthumb 8.14544 -29.6164
lclavicle -7.65321e-015 -2.54444e-014
lhumerus -39.7008 33.6676 24.7956
lradius 43.2236
lwrist 7.27556
lhand -19.3513 2.08955
lfingers 7.12502
lthumb 6.96607 31.9549
rfemur -3.96766 -12.2783 28.3432
rtibia 50.2308
rfoot 12.0415 -12.4021
rtoes -6.16513
lfemur -12.4444 -5.18904 5.85136
ltibia 37.7573
lfoot -9.98529 16.9896
ltoes -12.6
1207
root 2.18221 17.8696 31.1249 -3.74529 2.15053 -18.8479
lowerback 10.9448 -1.77596 -11.0413
upperback 0.344934 -3.99726 -4.88597
thorax -5.40501 -1.72886 1.61712
lowerneck -17.3718 2.06282 4.77889
upperneck 19.9362 -0.720739 9.81865
head 9.25512 1.12914 2.50673
rclavicle -5.14852e-014 -5.40694e-014
rhumerus -28.8096 -16.0619 -6.43185
rradius 38.1711
rwrist -10.9488
rhand -18.1383 0.247827
rfingers 7.12502
rthumb 8.13683 -29.5755
lclavicle -5.14852e-014 -5.40694e-014
lhumerus -39.7895 33.6961 24.7478
lradius 43.1592
lwrist 7.27223
lhand -19.3642 2.07651
lfingers 7.12502
lthumb 6.9536 31.9423
rfemur -3.98558 -12.1298 28.1367
rtibia 50.3821
rfoot 12.5313 -12.3643
rtoes -6.12388
lfemur -12.1099 -5.24591 5.61706
ltibia 37.5435
lfoot -10.064 17.1655
ltoes -12.6137
1208
root 2.19669 17.8758 31.1837 -3.67702 2.07603 -18.7259
lowerback 10.921 -1.8071 -11.2661
upperback 0.258599 -4.07344 -4.91852
thorax -5.46467 -1.7548 1.71542
lowerneck -17.185 2.10286 4.80567
upperneck 19.8739 -0.661485 9.8742
head 9.19786 1.15724 2.52404
rclavicle 4.37326e-015 -1.59028e-014
rhumerus -28.6021 -15.8489 -6.41047
rradius 38.1762
rwrist -10.9491
rhand -18.1666 0.441794
rfingers 7.12502
rthumb 8.10955 -29.3826
lclavicle 4.37326e-015 -1.59028e-014
lhumerus -40.0234 33.6413 24.5929
lradius 43.108
lwrist 7.3175
lhand -19.3709 2.06743
lfingers 7.12502
lthumb 6.94708 31.9334
rfemur -4.02644 -11.9982 27.9647
rtibia 50.5589
rfoot 13.0041 -12.3661
rtoes -6.03293
lfemur -11.7954 -5.28416 5.41108
ltibia 37.3387
lfoot -10.153 17.3298
ltoes -12.6033
1209
root 2.21301 17.8809 31.2409 -3.62438 2.03158 -18.6582
lowerback 10.9142 -1.84231 -11.3749
upperback 0.203446 -4.1398 -4.94581
thorax -5.50818 -1.7806 1.75521
lowerneck -17.0732 2.12641 4.80847
upperneck 19.8123 -0.627944 9.93977
head 9.15556 1.17453 2.54681
rclavicle 1.25234e-014 2.54444e-014
rhumerus -28.4686 -15.7173 -6.35917
rradius 38.2183
rwrist -10.8732
rhand -18.1557 0.684042
rfingers 7.12502
rthumb 8.12009 -29.1399
lclavicle 1.25234e-014 2.54444e-014
lhumerus -40.1782 33.6483 24.484
lradius 43.0246
lwrist 7.35095
lhand -19.3822 1.98735
lfingers 7.12502
lthumb 6.93621 31.8537
rfemur -4.051 -11.9423 27.8262
rtibia 50.7321
rfoot 13.4735 -12.3652
rtoes -5.92647
lfemur -11.5022 -5.34057 5.25293
ltibia 37.1678
lfoot -10.2652 17.4902
ltoes -12.5817
1210
root 2.22939 17.8833 31.2948 -3.58911 1.98594 -18.6884
lowerback 10.9269 -1.86987 -11.3487
upperback 0.191725 -4.17648 -4.94932
thorax -5.52595 -1.79798 1.74315
lowerneck -17.091 2.13373 4.78942
upperneck 19.766 -0.625603 10.0091
head 9.14344 1.18005 2.57339
rclavicle 2.36554e-014 1.27222e-014
rhumerus -28.411 -15.7035 -6.27547
rradius 38.3094
rwrist -10.7296
rhand -18.1178 1.00551
rfingers 7.12502
rthumb 8.15665 -28.8171
lclavicle 2.36554e-014 1.27222e-014
lhumerus -40.2329 33.7354 24.445
lradius 42.9235
lwrist 7.3789
lhand -19.4078 1.89698
lfingers 7.12502
lthumb 6.91149 31.7642
rfemur -4.07914 -11.9033 27.8008
rtibia 50.9083
rfoot 13.9603 -12.4066
rtoes -5.68948
lfemur -11.2289 -5.38001 5.21006
ltibia 37.0298
lfoot -10.3925 17.6238
ltoes -12.5659
1211
root 2.24683 17.8849 31.3476 -3.56879 1.95178 -18.7421
lowerback 10.9389 -1.89531 -11.2608
upperback 0.218759 -4.19808 -4.94897
thorax -5.50702 -1.81271 1.69901
lowerneck -17.1864 2.13226 4.76319
upperneck 19.7024 -0.637824 10.073
head 9.14003 1.17888 2.59844
rclavicle -4.57205e-015 1.27222e-013
rhumerus -28.3946 -15.7769 -6.17641
rradius 38.4285
rwrist -10.5633
rhand -18.0607 1.23841
rfingers 7.12502
rthumb 8.2118 -28.582
lclavicle -4.57205e-015 1.27222e-013
lhumerus -40.2313 33.8926 24.4556
lradius 42.8455
lwrist 7.37732
lhand -19.4343 1.85377
lfingers 7.12502
lthumb 6.88589 31.7218
rfemur -4.09715 -11.8995 27.7897
rtibia 51.0904
rfoot 14.4473 -12.4634
rtoes -5.29144
lfemur -10.961 -5.43373 5.18543
ltibia 36.9189
lfoot -10.5332 17.7618
ltoes -12.5495
